<svg version="1" xmlns="http://www.w3.org/2000/svg" width="933.333" height="933.333" viewBox="0 0 700.000000 700.000000"><path d="M0 350v350h700V0H0v350zm269.3-242.2l18.7 18.7-16.3 16.5c-29.2 29.6-47.9 55.5-63.8 88.5-11.1 22.9-19 48.6-23.6 76-2.6 15.6-2.6 63 0 79 7.1 44.1 21.5 81.2 45.3 117.2 13.2 20 32.7 42.9 49 57.9 5.2 4.8 9.3 9 9.2 9.5-.2.4-9 9.6-19.6 20.4l-19.3 19.6-5.7-4.8c-10.7-9-37.4-35.8-47.6-47.7-44.1-51.6-68.5-104.3-77.3-167.6-2.2-15.7-2.5-60.2-.5-76 4.4-35.4 13.9-67.4 29.7-99.5 15.5-31.7 33.4-57.2 61-86.9 11-11.9 40-39.5 41.5-39.6.3 0 9 8.4 19.3 18.8zm191.5-11.2c29.9 26.3 58 58.5 76.2 87.6 13.4 21.3 26.7 50.5 34.3 75.3 10.4 33.7 14.9 78 11.7 116-7.1 83-48.2 160.6-118.4 223.2l-13.9 12.4-6.1-5.8c-3.4-3.3-12-11.7-19.3-18.8l-13.2-12.8 14.7-14.6c51.9-51.3 81.2-107.2 90.4-172.1.8-6.1 1.3-19 1.2-36 0-22.3-.4-28.6-2.2-39.8-10.5-64.2-38.5-117.6-87.7-166.9l-16.1-16.2 19.5-19.6C442.7 97.8 451.6 89 451.8 89c.1 0 4.2 3.4 9 7.6z"/></svg>