<?xml version="1.0" encoding="UTF-8" standalone="no"?>
<svg
   xmlns:dc="http://purl.org/dc/elements/1.1/"
   xmlns:cc="http://creativecommons.org/ns#"
   xmlns:rdf="http://www.w3.org/1999/02/22-rdf-syntax-ns#"
   xmlns:svg="http://www.w3.org/2000/svg"
   xmlns="http://www.w3.org/2000/svg"
   xmlns:sodipodi="http://sodipodi.sourceforge.net/DTD/sodipodi-0.dtd"
   xmlns:inkscape="http://www.inkscape.org/namespaces/inkscape"
   width="500mm"
   height="500mm"
   viewBox="0 0 500 500"
   version="1.1"
   id="svg8"
   inkscape:version="1.0.1 (3bc2e813f5, 2020-09-07)"
   sodipodi:docname="favicon.svg">
  <defs
     id="defs2" />
  <sodipodi:namedview
     id="base"
     pagecolor="#ffffff"
     bordercolor="#666666"
     borderopacity="1.0"
     inkscape:pageopacity="0.0"
     inkscape:pageshadow="2"
     inkscape:zoom="0.7"
     inkscape:cx="587.55359"
     inkscape:cy="789.42169"
     inkscape:document-units="mm"
     inkscape:current-layer="text1919-2"
     inkscape:document-rotation="0"
     showgrid="false"
     inkscape:window-width="3840"
     inkscape:window-height="2068"
     inkscape:window-x="-12"
     inkscape:window-y="-12"
     inkscape:window-maximized="1" />
  <metadata
     id="metadata5">
    <rdf:RDF>
      <cc:Work
         rdf:about="">
        <dc:format>image/svg+xml</dc:format>
        <dc:type
           rdf:resource="http://purl.org/dc/dcmitype/StillImage" />
        <dc:title></dc:title>
      </cc:Work>
    </rdf:RDF>
  </metadata>
  <g
     inkscape:label="Layer 1"
     inkscape:groupmode="layer"
     id="layer1">
    <rect
       style="fill:#0000d6;stroke-width:0.270564;fill-opacity:1"
       id="rect1921"
       width="500"
       height="500"
       x="0"
       y="0" />
    <g
       aria-label="()"
       id="text1919-2"
       style="font-style:normal;font-weight:normal;font-size:400px;line-height:1.25;font-family:sans-serif;fill:#ffffff;fill-opacity:1;stroke:none;stroke-width:0.264583">
      <path
         d="M 177.73437,436.62109 Q 130.27344,396.38672 106.44531,350.29297 82.8125,304.19922 82.8125,251.07422 q 0,-29.6875 7.03125,-56.05469 7.03125,-26.5625 19.72656,-49.80469 12.89063,-23.24218 30.46875,-43.55468 17.77344,-20.507816 38.86719,-38.281254 l 27.14844,27.148438 q -38.08594,34.179686 -57.22657,73.828126 -19.14062,39.64844 -19.14062,83.39844 0,44.33593 19.14062,85.35156 19.14063,40.82031 57.22657,74.60937 z"
         style="font-style:normal;font-variant:normal;font-weight:bold;font-stretch:normal;font-size:400px;font-family:Consolas;-inkscape-font-specification:'Consolas Bold';fill:#ffffff;stroke-width:0.264583"
         id="path2804" />
      <path
         d="m 322.46094,63.378906 q 47.85156,39.843754 71.28906,86.132814 23.4375,46.09375 23.4375,99.41406 0,29.6875 -7.03125,56.05469 -7.03125,26.36719 -19.72656,49.80469 -12.5,23.4375 -30.07813,43.75 -17.57812,20.50781 -38.67187,38.08593 l -27.34375,-27.14843 q 38.28125,-34.17969 57.42187,-74.02344 19.14063,-39.84375 19.14063,-83.59375 0,-44.14063 -19.14063,-85.15625 -19.14062,-41.01563 -57.42187,-75.000001 z"
         style="font-style:normal;font-variant:normal;font-weight:bold;font-stretch:normal;font-size:400px;font-family:Consolas;-inkscape-font-specification:'Consolas Bold';fill:#ffffff;stroke-width:0.264583"
         id="path2806" />
    </g>
  </g>
</svg>
